<svg width="17" height="19" viewBox="0 0 17 19" fill="none" xmlns="http://www.w3.org/2000/svg">
<path d="M8.76317 6.28407C9.80317 6.28407 10.6462 7.12707 10.6462 8.16607C10.6462 9.20607 9.80317 10.0481 8.76317 10.0481C7.72317 10.0481 6.88017 9.20507 6.88017 8.16607C6.88017 7.12707 7.72317 6.28407 8.76317 6.28407ZM14.1832 8.82707C14.1832 10.6851 13.2432 12.3271 11.8132 13.3031C11.7402 13.3531 11.6412 13.2961 11.6472 13.2081C11.6672 12.8781 11.6732 12.5851 11.6562 12.2841C11.6502 12.1851 11.6892 12.0891 11.7622 12.0211C12.6152 11.2211 13.1482 10.0851 13.1482 8.82607C13.1482 6.35107 11.0862 4.34907 8.59017 4.44607C6.29317 4.53507 4.44017 6.41107 4.38017 8.70907C4.34617 10.0141 4.88517 11.1971 5.76417 12.0221C5.83617 12.0901 5.87517 12.1861 5.86917 12.2851C5.85217 12.5861 5.85817 12.8781 5.87817 13.2091C5.88317 13.2971 5.78517 13.3531 5.71217 13.3041C4.26417 12.3151 3.31817 10.6441 3.34217 8.75707C3.37917 5.88807 5.68017 3.52407 8.54717 3.41307C11.6342 3.29307 14.1832 5.76807 14.1832 8.82707ZM8.74017 0.738068C13.2122 0.725068 16.8542 4.35907 16.8542 8.82607C16.8542 12.3481 14.5902 15.3511 11.4412 16.4581C11.3642 16.4851 11.2852 16.4211 11.2982 16.3401C11.3402 16.0631 11.3792 15.7851 11.4152 15.5121C11.4282 15.4151 11.4892 15.3321 11.5782 15.2931C14.0722 14.2041 15.8192 11.7151 15.8192 8.82607C15.8192 4.91707 12.6222 1.74107 8.70517 1.77307C4.87317 1.80407 1.74517 4.92707 1.70817 8.75707C1.68017 11.6761 3.43517 14.1951 5.94817 15.2931C6.03717 15.3321 6.09917 15.4151 6.11217 15.5121C6.14817 15.7861 6.18717 16.0641 6.22917 16.3411C6.24117 16.4221 6.16317 16.4861 6.08617 16.4591C2.90617 15.3411 0.629173 12.2911 0.673173 8.72407C0.727173 4.32307 4.33617 0.751068 8.74017 0.738068ZM8.76317 10.8101C9.47917 10.8101 10.0852 11.0431 10.4312 11.4081C10.6112 11.5981 10.7062 11.7931 10.7362 12.0701C10.7942 12.6071 10.7612 13.0701 10.6982 13.8101C10.6382 14.5151 10.5242 15.4551 10.3752 16.4121C10.2692 17.0931 10.1832 17.4611 10.1052 17.7241C9.97817 18.1511 9.50417 18.5241 8.76217 18.5241C8.02017 18.5241 7.54617 18.1511 7.41917 17.7241C7.34117 17.4611 7.25517 17.0931 7.14917 16.4121C7.00017 15.4551 6.88617 14.5151 6.82617 13.8101C6.76317 13.0701 6.73017 12.6071 6.78817 12.0701C6.81817 11.7931 6.91317 11.5981 7.09317 11.4081C7.44117 11.0431 8.04717 10.8101 8.76317 10.8101Z" fill="#E1DDDC"/>
</svg>
