<svg width="83" height="15" viewBox="0 0 83 15" fill="none" xmlns="http://www.w3.org/2000/svg">
<path d="M18.8959 1.55855C21.3089 1.55855 22.9889 3.22155 22.9889 5.64255C22.9889 8.07255 21.2739 9.74455 18.8359 9.74455H16.1649V13.9926H14.2349V1.55855H18.8959ZM16.1649 8.12455H18.3799C20.0599 8.12455 21.0169 7.21955 21.0169 5.65155C21.0169 4.08355 20.0609 3.18755 18.3889 3.18755H16.1659L16.1649 8.12455Z" fill="#E1DDDC"/>
<path d="M23.2739 9.45955C23.2739 6.54755 24.9889 4.76355 27.5739 4.76355C30.1589 4.76355 31.8739 6.54755 31.8739 9.45955C31.8739 12.3806 30.1679 14.1646 27.5739 14.1646C24.9799 14.1646 23.2739 12.3806 23.2739 9.45955ZM29.9769 9.45955C29.9769 7.45155 29.0289 6.29755 27.5729 6.29755C26.1169 6.29755 25.1689 7.45255 25.1689 9.45955C25.1689 11.4756 26.1169 12.6306 27.5729 12.6306C29.0379 12.6306 29.9769 11.4766 29.9769 9.45955Z" fill="#E1DDDC"/>
<path d="M32.9079 9.45955C32.9079 6.59855 34.4239 4.78055 36.6989 4.78055C37.9999 4.78055 39.0339 5.43555 39.5419 6.43455H39.5769V1.55755H41.4469V13.9916H39.6379V12.4496H39.6029C39.0689 13.4836 38.0349 14.1466 36.7169 14.1466C34.4249 14.1476 32.9079 12.3206 32.9079 9.45955ZM34.8129 9.45955C34.8129 11.3726 35.7349 12.5706 37.2089 12.5706C38.6389 12.5706 39.5959 11.3556 39.5959 9.45955C39.5959 7.58155 38.6399 6.34855 37.2089 6.34855C35.7349 6.34955 34.8129 7.55555 34.8129 9.45955Z" fill="#E1DDDC"/>
<path d="M49.1469 8.04655C48.9579 7.08155 48.2339 6.31455 47.0189 6.31455C45.5799 6.31455 44.6319 7.51255 44.6319 9.45955C44.6319 11.4496 45.5889 12.6045 47.0359 12.6045C48.1819 12.6045 48.9319 11.9755 49.1469 10.9245H50.9389C50.7409 12.8545 49.1979 14.1646 47.0179 14.1646C44.4239 14.1646 42.7359 12.3896 42.7359 9.45955C42.7359 6.58155 44.4249 4.76355 47.0009 4.76355C49.3359 4.76355 50.7579 6.26255 50.9219 8.04655H49.1469Z" fill="#E1DDDC"/>
<path d="M51.8969 11.4156C51.8969 9.82955 53.1119 8.85655 55.2659 8.73555L57.7479 8.58955V7.89155C57.7479 6.88355 57.0669 6.28055 55.9299 6.28055C54.8529 6.28055 54.1809 6.79755 54.0169 7.60755H52.2589C52.3619 5.97055 53.7579 4.76355 55.9989 4.76355C58.1959 4.76355 59.6009 5.92655 59.6009 7.74455V13.9916H57.8159V12.5005H57.7729C57.2469 13.5085 56.1009 14.1465 54.9119 14.1465C53.1379 14.1475 51.8969 13.0445 51.8969 11.4156ZM57.7479 10.5975V9.88255L55.5159 10.0196C54.4039 10.0976 53.7749 10.5886 53.7749 11.3636C53.7749 12.1566 54.4299 12.6735 55.4289 12.6735C56.7309 12.6735 57.7479 11.7775 57.7479 10.5975Z" fill="#E1DDDC"/>
<path d="M64.6309 4.76355C66.7419 4.76355 68.1119 5.93555 68.1729 7.60755H66.4239C66.3209 6.72855 65.6739 6.17755 64.6319 6.17755C63.6239 6.17755 62.9519 6.66855 62.9519 7.39255C62.9519 7.96155 63.3659 8.34855 64.3479 8.57255L65.8209 8.90855C67.6739 9.33955 68.3799 10.0635 68.3799 11.3725C68.3799 13.0265 66.8379 14.1646 64.7009 14.1646C62.4349 14.1646 61.0729 13.0525 60.9009 11.3295H62.7449C62.9169 12.2775 63.5639 12.7425 64.7009 12.7425C65.8209 12.7425 66.5099 12.2776 66.5099 11.5366C66.5099 10.9506 66.1739 10.6055 65.1829 10.3815L63.7099 10.0366C61.9869 9.64055 61.1329 8.81255 61.1329 7.49455C61.1329 5.87555 62.5459 4.76355 64.6309 4.76355Z" fill="#E1DDDC"/>
<path d="M72.2759 2.78155V4.92755H73.9989V6.40155H72.2759V11.3996C72.2759 12.1836 72.6209 12.5366 73.3789 12.5366C73.5679 12.5366 73.8699 12.5196 73.9909 12.4936V13.9666C73.7839 14.0186 73.3709 14.0526 72.9569 14.0526C71.1219 14.0526 70.4059 13.3546 70.4059 11.6056V6.40155H69.0879V4.92755H70.4059V2.78155H72.2759Z" fill="#E1DDDC"/>
<path d="M78.8069 4.76355C80.9179 4.76355 82.2879 5.93555 82.3489 7.60755H80.5999C80.4969 6.72855 79.8499 6.17755 78.8079 6.17755C77.7999 6.17755 77.1279 6.66855 77.1279 7.39255C77.1279 7.96155 77.5419 8.34855 78.5239 8.57255L79.9969 8.90855C81.8499 9.33955 82.5559 10.0635 82.5559 11.3725C82.5559 13.0265 81.0139 14.1646 78.8769 14.1646C76.6109 14.1646 75.2489 13.0525 75.0769 11.3295H76.9209C77.0929 12.2775 77.7399 12.7425 78.8769 12.7425C79.9969 12.7425 80.6859 12.2776 80.6859 11.5366C80.6859 10.9506 80.3499 10.6055 79.3589 10.3815L77.8859 10.0366C76.1629 9.64055 75.3089 8.81255 75.3089 7.49455C75.3089 5.87555 76.7219 4.76355 78.8069 4.76355Z" fill="#E1DDDC"/>
<path d="M9.00588 3.87655C7.89688 3.79455 6.95488 4.49655 6.42988 4.49655C5.89688 4.49655 5.07588 3.89455 4.20488 3.91155C3.06088 3.92855 2.00688 4.57655 1.41788 5.60055C0.229879 7.66255 1.11488 10.7176 2.27188 12.3906C2.83788 13.2076 3.51288 14.1296 4.39988 14.0956C5.25288 14.0616 5.57588 13.5436 6.60788 13.5436C7.63888 13.5436 7.92988 14.0956 8.83188 14.0786C9.75088 14.0616 10.3319 13.2446 10.8939 12.4226C11.5439 11.4736 11.8109 10.5545 11.8269 10.5065C11.8069 10.4985 10.0369 9.81955 10.0189 7.78055C10.0029 6.07555 11.4109 5.25555 11.4749 5.21655C10.6749 4.03855 9.44088 3.90955 9.00588 3.87655Z" fill="#E1DDDC"/>
<path d="M8.32187 2.77255C8.79287 2.20355 9.10987 1.41055 9.02287 0.621552C8.34487 0.648552 7.52487 1.07355 7.03787 1.64255C6.60187 2.14655 6.21987 2.95355 6.32387 3.72655C7.07987 3.78455 7.85087 3.34255 8.32187 2.77255Z" fill="#E1DDDC"/>
</svg>
