<svg width="57" height="72" viewBox="0 0 57 72" fill="none" xmlns="http://www.w3.org/2000/svg">
<g clip-path="url(#clip0_539_169)">
<path fill-rule="evenodd" clip-rule="evenodd" d="M55.5608 58.2979C54.9219 59.5424 52.9765 60.2312 50.661 60.2025C48.6231 60.2199 46.1022 59.1314 45.3031 58.2279C45.0261 58.1356 45.4417 58.0432 45.3328 57.8274C45.8318 57.1762 46.1862 56.259 46.7109 55.4213C47.4319 55.8171 48.0481 56.2941 49.093 56.6837C49.8068 56.8722 51.5481 57.5029 51.8661 56.3299C51.3842 55.5163 49.8125 55.4869 48.6396 54.9761C47.4679 54.5221 46.8005 54.1936 46.0808 53.5497C45.222 52.7876 45.1858 50.9273 45.8799 49.7552C46.263 49.1225 46.7016 48.5455 47.3461 48.1713C48.6772 47.3187 50.4636 47.1719 51.9897 47.4211C53.9024 47.7737 54.8097 48.4228 55.5419 49.2325C54.93 50.1465 54.5004 50.927 53.9476 51.7326C53.9476 51.7326 53.7985 51.764 53.7627 51.7942C53.2853 51.4604 52.7529 51.1711 52.0256 50.8176C51.3073 50.5086 50.2179 50.2325 49.6614 50.7557C49.3554 51.8909 50.8637 51.8559 51.8187 52.2144C53.9373 52.8662 55.0072 53.3176 55.8039 54.4222C56.4607 55.5299 56.2378 57.2813 55.5608 58.2979ZM44.5175 34.3853C42.3731 35.3029 40.2287 35.1968 38.0137 35.1106C35.8508 35.0232 34.0641 33.8599 32.1297 33.4227C29.7193 33.5607 29.2815 34.7857 28.5726 36.1636C27.151 38.3511 25.4073 40.062 22.8743 41.3592C20.5268 42.686 16.819 43.1935 13.8585 42.615C10.6493 41.8984 8.92501 40.7055 7.48837 39.5283C6.11718 38.4393 5.20403 37.139 4.20739 35.4336C3.5183 34.308 2.61165 31.6503 2.57046 29.6476C2.42844 27.8095 2.69914 25.9715 3.40011 23.946C4.58291 21.2157 6.0727 19.0128 7.17907 16.8764C9.18116 13.4022 10.9322 10.1208 12.9696 6.67729C13.973 5.26393 15.1911 4.06533 16.7112 3.02407C17.8456 2.16057 20.853 0.858474 23.1592 0.626236C23.2777 0.544908 23.2777 0.544908 23.28 0.638404C26.7607 0.0117607 30.6335 1.48463 33.3942 2.93078C34.7478 3.59756 35.9103 4.02204 37.3998 4.74176C39.7382 5.80281 42.6747 7.13701 45.2054 8.25742C47.7665 9.48232 49.1041 10.5048 50.6457 12.3528C51.7312 13.6753 53.043 15.8545 53.6263 19.042C53.8687 21.5811 53.7827 24.3899 52.6102 26.895C50.7368 30.6084 48.6672 32.6708 44.5175 34.3853ZM20.8147 5.62736C20.5014 5.24875 20.6795 4.2912 20.1144 4.30274C17.5706 5.04777 15.8196 6.27596 14.3466 7.26099C14.2124 7.52966 14.6874 8.12043 14.8117 8.3712C15.6046 9.66952 16.307 10.9495 17.1751 12.2937C18.9302 12.2351 21.4607 11.7397 22.3939 10.8585C22.0958 9.73519 21.7044 8.61197 21.3426 7.38659C21.1703 6.84197 21.0037 6.29735 20.8147 5.62736ZM28.1267 2.71491C27.1921 2.79141 26.4092 2.79141 25.6263 2.79141C24.2307 2.95729 22.8351 3.31393 21.4396 3.81882C22.066 5.82966 22.9431 8.1933 23.5893 10.1988C23.601 10.433 23.8223 10.3139 23.8904 10.3479C26.2837 10.1703 27.3165 9.1912 28.817 8.42204C28.5715 6.45791 28.3605 4.52365 28.1267 2.71491ZM37.6284 23.126C36.264 20.692 34.1482 19.6065 31.0576 18.3064C28.7996 17.0728 26.1104 17.4557 23.9961 18.3314C21.635 19.5579 20.4321 21.051 19.4304 23.8446C19.5193 22.0732 20.3793 19.905 21.1162 19.269C21.5928 18.8532 21.608 18.7076 22.3055 18.3816C20.3124 18.7062 17.8425 19.3513 16.4778 20.2623C15.0451 21.2563 13.8801 21.8543 13.4374 24.3578C13.4065 26.002 14.119 27.3309 14.8201 27.7361C16.259 28.9102 18.6326 28.5965 20.3865 27.9481C23.0734 26.8436 24.9668 25.9008 26.3389 24.4599C27.9419 23.4745 29.9036 21.7471 33.2697 22.2392C34.7914 22.8891 35.502 23.8797 36.3009 25.1716C36.3484 25.1546 36.1256 25.3196 36.1256 25.3196C35.4282 24.5662 35.0056 23.9954 33.687 23.6063C32.3156 23.2782 30.9325 23.3732 29.8447 23.9703C27.9707 24.9509 26.7785 26.2267 25.5454 27.6371C23.0368 30.5418 21.2799 33.4106 19.4293 38.3314C19.3051 38.8115 18.8599 39.7648 18.9317 40.1991C22.0812 39.3981 23.6217 38.282 25.0879 37.0918C26.5451 35.7162 27.7519 34.2867 28.7039 32.054C28.9663 30.0901 29.4588 28.286 29.2467 26.482C29.1152 26.1927 29.3365 26.3118 29.4046 26.2778C29.8195 27.9797 30.1198 29.5795 29.9828 31.1793C31.5338 30.7586 32.9254 31.5987 34.1718 32.052C35.6335 32.615 37.0632 32.8209 38.4928 32.9413C39.4479 32.8633 40.6656 33.0627 41.3329 32.5728C40.3824 28.6175 39.1437 25.3539 37.6284 23.126ZM4.16578 49.8876C4.92095 48.7332 5.41095 47.8476 7.44312 47.3235C7.78172 47.386 8.12032 47.2369 8.55123 47.5163C8.55123 48.7167 8.55123 49.9172 8.55123 51.2099C8.62823 51.2715 8.42809 51.4716 8.27424 51.3718C7.35081 51.5219 6.42739 51.5359 5.43627 52.0201C4.11879 52.2108 4.72424 54.2545 4.58053 55.55C4.58053 56.9659 4.58053 58.3818 4.64648 59.956C3.26508 60.0213 1.75452 59.9574 0.240534 59.9824C0.040464 60.0902 0.255919 59.7823 0.0558486 59.7977C0.0558486 55.7655 0.0558486 51.7332 0.0558486 47.6087C1.37942 47.6087 2.70298 47.6087 4.17613 47.6087C4.22046 48.3166 4.26837 49.0246 4.16578 49.8876ZM0.641303 66.738C0.830953 66.5527 1.04312 66.3809 1.27795 66.2224C1.40473 66.1369 1.53263 66.0539 1.66116 65.9727C1.58333 65.8511 1.51354 65.7366 1.45403 65.6312C1.35473 65.4551 1.28249 65.2938 1.23732 65.1474C1.19214 65.0011 1.16955 64.8623 1.16955 64.7309C1.16955 64.4206 1.25837 64.1415 1.43599 63.8938C1.61347 63.6461 1.8483 63.4476 2.14039 63.2983C2.43235 63.1492 2.7469 63.0744 3.0841 63.0744C3.30088 63.0744 3.50249 63.1123 3.68921 63.1878C3.87571 63.2636 4.03983 63.3725 4.18137 63.5145C4.32277 63.6567 4.43564 63.8276 4.52004 64.0271L3.97816 64.5171C3.89375 64.2812 3.7599 64.0832 3.57627 63.9228C3.39256 63.7626 3.18641 63.6824 2.95767 63.6824C2.77102 63.6824 2.59941 63.7253 2.44291 63.8111C2.28627 63.897 2.15983 64.0108 2.06361 64.1529C1.96725 64.295 1.91914 64.4458 1.91914 64.6056C1.91914 64.6833 1.9341 64.7757 1.96431 64.8832C1.99438 64.9906 2.04851 65.1174 2.12683 65.2637C2.20501 65.41 2.31648 65.5875 2.46102 65.7964L3.60669 67.4436C3.67536 67.3149 3.74144 67.1819 3.80207 67.04C3.9676 66.6524 4.08948 66.2348 4.16781 65.7874H4.25816H4.87221H5.75725L5.62179 66.4135H4.72578C4.63452 66.7327 4.52095 67.0353 4.38452 67.3209C4.26718 67.5664 4.13739 67.7936 3.99662 68.0043L5.0799 69.562H4.09557L3.47704 68.6519C3.20242 68.9351 2.91046 69.1595 2.60095 69.3249C2.24879 69.5132 1.88893 69.6074 1.52179 69.6074C1.22676 69.6074 0.966408 69.5447 0.740604 69.419C0.51487 69.2936 0.337177 69.1188 0.207807 68.8945C0.0782961 68.6704 0.0136108 68.4177 0.0136108 68.1367C0.0136108 67.8498 0.0708136 67.5913 0.185219 67.3611C0.299555 67.131 0.451653 66.9233 0.641303 66.738ZM1.05221 68.7264C1.22676 68.8902 1.44053 68.9722 1.6934 68.9722C1.96431 68.9722 2.22914 68.8918 2.48809 68.7308C2.71711 68.5883 2.93249 68.3925 3.13571 68.1497L1.99599 66.4727C1.84179 66.5718 1.69655 66.6716 1.56242 66.7725C1.32452 66.9513 1.13641 67.142 0.998016 67.3448C0.859415 67.5475 0.790254 67.7769 0.790254 68.0332C0.790254 68.3314 0.877527 68.5625 1.05221 68.7264ZM9.17543 65.6539C9.43123 65.3836 9.73221 65.1706 10.0785 65.0145C10.4247 64.8584 10.7994 64.7803 11.2028 64.7803C11.6663 64.7803 12.0382 64.8846 12.3182 65.0933C12.5981 65.302 12.7832 65.5818 12.8735 65.9326L12.0517 66.1776C11.9795 65.9478 11.859 65.7724 11.6905 65.6513C11.5219 65.5304 11.3142 65.4699 11.0674 65.4699C10.8265 65.4699 10.5933 65.5237 10.3675 65.6315C10.1417 65.7392 9.9399 65.8905 9.76242 66.085C9.58473 66.2797 9.44326 66.5027 9.33795 66.754C9.23256 67.0055 9.1799 67.2749 9.1799 67.5622C9.1799 67.8316 9.22802 68.0711 9.32445 68.2806C9.42067 68.4902 9.55473 68.6563 9.72627 68.7791C9.89788 68.9019 10.095 68.9632 10.3178 68.9632C10.4924 68.9632 10.6669 68.9299 10.8416 68.8633C11.0161 68.7968 11.1742 68.7076 11.3157 68.5957C11.4571 68.4838 11.564 68.3613 11.6363 68.2282L12.3678 68.4641C12.2292 68.6941 12.0472 68.8982 11.8214 69.0765C11.5956 69.2551 11.3442 69.3957 11.0674 69.4985C10.7904 69.6013 10.5044 69.6527 10.2094 69.6527C9.81207 69.6527 9.47641 69.5625 9.20249 69.3825C8.9285 69.2025 8.71935 68.9622 8.57487 68.662C8.43039 68.3619 8.35809 68.0287 8.35809 67.6624C8.35809 67.2841 8.43039 66.9223 8.57487 66.5771C8.71935 66.2319 8.91941 65.9241 9.17543 65.6539ZM13.9707 65.6313C14.2265 65.3642 14.5231 65.1555 14.8603 65.0054C15.1974 64.8554 15.5556 64.7803 15.9349 64.7803C16.3563 64.7803 16.7071 64.8704 16.987 65.0505C17.267 65.2306 17.4761 65.4708 17.6147 65.771C17.7531 66.0713 17.8224 66.4044 17.8224 66.7706C17.8224 67.1611 17.7502 67.5304 17.6056 67.8785C17.4612 68.2267 17.2594 68.5346 17.0006 68.8016C16.7417 69.0689 16.4437 69.2776 16.1065 69.4276C15.7693 69.5776 15.4081 69.6527 15.0228 69.6527C14.6014 69.6527 14.2521 69.5625 13.9753 69.3825C13.6983 69.2025 13.4921 68.9622 13.3567 68.662C13.2212 68.3619 13.1535 68.0317 13.1535 67.6713C13.1535 67.275 13.2257 66.9027 13.3702 66.5546C13.5147 66.2064 13.7148 65.8985 13.9707 65.6313ZM14.1107 68.2852C14.201 68.4977 14.3349 68.6639 14.5126 68.7835C14.6901 68.9033 14.9054 68.9632 15.1583 68.9632C15.3931 68.9632 15.6203 68.9123 15.8401 68.8104C16.0598 68.7086 16.2556 68.5634 16.4271 68.3749C16.5987 68.1864 16.7356 67.9664 16.838 67.715C16.9403 67.4634 16.9916 67.1881 16.9916 66.8887C16.9916 66.6134 16.9464 66.3694 16.8561 66.1569C16.7658 65.9443 16.6333 65.7768 16.4587 65.654C16.284 65.5312 16.0673 65.4699 15.8085 65.4699C15.5737 65.4699 15.3479 65.5223 15.1312 65.6271C14.9144 65.7318 14.7188 65.8785 14.5442 66.0671C14.3696 66.2557 14.2311 66.4773 14.1288 66.7316C14.0263 66.9861 13.9753 67.263 13.9753 67.5622C13.9753 67.8316 14.0204 68.0727 14.1107 68.2852ZM21.5406 56.1348C21.6165 57.2594 21.5426 58.5338 21.6537 59.8713C20.9424 60.1946 19.7614 60.3334 18.8 60.1671C17.744 59.9207 17.4297 59.5246 17.0466 58.6896C17.0466 58.5973 17.0466 58.5049 17 58.2234C16.3626 58.6399 16.0626 59.22 15.3189 59.5127C14.001 60.443 11.7675 60.4398 10.3622 59.6288C9.48934 59.0058 9.0213 58.5679 8.53767 57.3664C8.02067 55.1109 9.19669 53.5332 10.2403 52.944C11.4065 52.0902 14.0014 51.5631 15.8462 52.3181C15.9693 52.3181 15.954 52.3181 16.205 52.2401C16.3417 50.7618 15.3569 50.4499 13.8354 50.4373C12.4625 50.4451 11.3379 51.1148 10.4904 51.6717C10.3981 51.6717 10.3057 51.6717 10.1984 51.5709C9.7306 50.6013 9.45361 49.9465 8.98347 48.9692C9.99578 48.1838 11.7831 47.5867 13.4409 47.3755C15.9274 47.0211 19.0576 48.0232 19.7991 49.3759C20.3564 49.9489 20.8382 51.656 20.7097 52.9167C20.9223 53.8981 20.3093 55.8649 21.5406 56.1348ZM16.1999 54.8783C15.6979 54.519 14.8356 54.4392 14.1947 54.4372C13.4861 54.6024 12.9793 54.88 12.7788 55.3367C12.6138 56.3163 12.8379 56.7544 13.6294 56.9194C15.2742 56.9129 16.4504 56.6019 16.1999 54.8783ZM19.9447 64.8529L19.7279 65.8699C19.8905 65.6479 20.0847 65.4558 20.3104 65.2936C20.5362 65.1315 20.7784 65.0055 21.0374 64.9154C21.2962 64.8253 21.5551 64.7803 21.814 64.7803C22.0669 64.7803 22.2686 64.8269 22.4191 64.9199C22.5696 65.0129 22.6779 65.142 22.7442 65.3071C22.8104 65.4723 22.8435 65.6659 22.8435 65.8879C22.8435 66.0201 22.833 66.1581 22.8119 66.3022C22.7907 66.4462 22.7652 66.5964 22.7351 66.7523L22.1391 69.562H21.3444L21.9044 66.9359C21.9344 66.8041 21.9554 66.6827 21.9676 66.5718C21.9796 66.461 21.9856 66.3575 21.9856 66.2615C21.9856 65.9978 21.9314 65.8044 21.8231 65.6815C21.7147 65.5586 21.5551 65.4971 21.3444 65.4971C21.1458 65.4971 20.9349 65.5509 20.7123 65.6585C20.4265 65.7662 20.2818 65.9111 20.0891 66.0934C19.8964 66.2757 19.7399 66.4864 19.6196 66.7254L19.0145 69.562H18.2198L19.2222 64.8529H19.9447ZM23.7738 65.4517L23.9092 64.8256H24.5142L24.5323 64.7258C24.6105 64.3327 24.7355 63.9969 24.9071 63.7187C25.0786 63.4405 25.2864 63.2257 25.5302 63.0744C25.774 62.9233 26.0373 62.8476 26.3204 62.8476C26.4949 62.8476 26.6636 62.8734 26.8261 62.9248C26.9887 62.9762 27.1332 63.0472 27.2596 63.138L26.9345 63.7278C26.8682 63.6674 26.7794 63.6189 26.6681 63.5826C26.5566 63.5463 26.4468 63.5281 26.3385 63.5281C26.0976 63.5281 25.8914 63.6295 25.7198 63.8321C25.5483 64.0348 25.4203 64.3236 25.3361 64.6986L25.3089 64.8256H26.492L26.3565 65.4517H25.1735L23.9002 71.4946H23.1054L24.3788 65.4517H23.7738ZM27.1964 65.6539C27.4551 65.3836 27.7577 65.1706 28.104 65.0145C28.4501 64.8584 28.8279 64.7803 29.2374 64.7803C29.5444 64.7803 29.8168 64.8283 30.0547 64.9244C30.2924 65.0206 30.4775 65.1618 30.61 65.3481C30.7424 65.5343 30.8087 65.7687 30.8087 66.0511C30.8087 66.5259 30.5979 66.8864 30.1765 67.1328C29.7551 67.3792 29.1078 67.5023 28.2349 67.5023C28.0724 67.5023 27.8857 67.4978 27.675 67.4887C27.531 67.4825 27.3703 67.4725 27.1954 67.4592C27.1905 67.526 27.1874 67.5933 27.1874 67.6612C27.1874 67.9068 27.2294 68.1359 27.3138 68.3485C27.398 68.5612 27.5275 68.732 27.7021 68.8608C27.8767 68.9895 28.0963 69.0539 28.3614 69.0539C28.6382 69.0539 28.9091 68.9828 29.1742 68.8406C29.439 68.6985 29.6467 68.5064 29.7972 68.2645L30.4384 68.455C30.294 68.685 30.1043 68.8906 29.8695 69.072C29.6347 69.2535 29.3773 69.3957 29.0974 69.4985C28.8174 69.6013 28.5298 69.6527 28.2349 69.6527C27.8435 69.6527 27.5093 69.5641 27.2325 69.387C26.9555 69.2099 26.7449 68.9713 26.6003 68.6711C26.4558 68.3708 26.3836 68.0346 26.3836 67.6624C26.3836 67.2841 26.4543 66.9223 26.5958 66.5771C26.7372 66.2319 26.9375 65.9241 27.1964 65.6539ZM27.7337 66.9306C27.9234 66.9429 28.0995 66.9488 28.262 66.9488C28.7195 66.9488 29.0807 66.9099 29.3457 66.8323C29.6106 66.7546 29.8018 66.6469 29.9192 66.5093C30.0365 66.3718 30.0953 66.2164 30.0953 66.0429C30.0953 65.8875 30.0576 65.7619 29.9824 65.6662C29.907 65.5705 29.8018 65.4987 29.6663 65.4509C29.5309 65.4031 29.3697 65.3791 29.1832 65.3791C28.8821 65.3791 28.6097 65.442 28.3658 65.5678C28.1221 65.6937 27.9112 65.8644 27.7337 66.08C27.5561 66.2957 27.4206 66.5398 27.3273 66.8123C27.3167 66.8434 27.3089 66.875 27.2994 66.9064C27.4606 66.9145 27.6064 66.9226 27.7337 66.9306ZM31.6571 47.3432C33.8993 47.8388 34.4054 48.4588 34.9828 50.5481C35.1577 51.9487 34.9937 53.2415 35.0654 54.5343C35.0532 56.3503 35.0532 58.074 35.0532 59.7977C35.0378 60.0594 34.8377 59.9516 34.7762 59.9824C33.3603 59.9824 32.0368 59.9824 30.7132 59.9824C30.7286 59.7823 30.4207 59.9978 30.5285 59.7977C30.5285 58.3203 30.5285 56.9351 30.5285 55.55C30.4119 54.2323 30.8486 52.39 30.0105 51.5836C29.8044 51.4796 29.811 51.4148 29.5057 51.3191C27.6452 51.6304 26.9424 52.4094 27.0068 54.4727C27.0196 56.2888 27.0196 58.0432 27.0196 59.7977C27.0965 60.0594 26.8964 59.9516 26.8349 59.9824C25.4189 59.9824 24.0954 59.9824 22.7718 59.9824C22.5102 60.0594 22.6179 59.8593 22.5871 59.7977C22.5871 55.6732 22.5871 51.6409 22.5871 47.6087C24.003 47.6355 25.3266 47.5669 26.6502 47.6371C26.6003 48.2541 26.7333 48.7153 26.591 49.1762C26.5878 49.1776 26.5869 49.1785 26.5903 49.1785C26.5905 49.1777 26.5907 49.1769 26.591 49.1762C26.6177 49.1646 26.8538 49.11 26.8538 49.11C27.354 48.1677 29.6104 47.1506 31.6571 47.3432ZM31.9692 68.886C32.213 68.9858 32.4733 69.0357 32.7503 69.0357C32.9911 69.0357 33.2033 69.0014 33.387 68.9328C33.5706 68.8641 33.7135 68.7656 33.816 68.6372C33.9183 68.5088 33.9695 68.361 33.9695 68.1937C33.9695 67.9776 33.8792 67.8291 33.6986 67.748C33.5179 67.6669 33.25 67.5753 32.8949 67.4732C32.5998 67.3832 32.3544 67.2992 32.1589 67.221C31.9631 67.143 31.8186 67.0424 31.7254 66.9193C31.6319 66.7962 31.5854 66.6266 31.5854 66.4104C31.5854 66.0863 31.6757 65.8026 31.8563 65.5593C32.0369 65.3162 32.2807 65.1255 32.5878 64.9874C32.8949 64.8493 33.241 64.7803 33.6263 64.7803C33.9815 64.7803 34.2915 64.8378 34.5565 64.9527C34.8214 65.0676 35.0381 65.2189 35.2068 65.4063L34.7461 65.8872C34.5956 65.7118 34.427 65.5848 34.2404 65.5062C34.0537 65.4276 33.837 65.3882 33.5902 65.3882C33.3554 65.3882 33.1461 65.4197 32.9626 65.4825C32.7789 65.5454 32.6344 65.6397 32.5291 65.7653C32.4237 65.8911 32.371 66.0467 32.371 66.2322C32.371 66.4178 32.4372 66.548 32.5697 66.6229C32.7021 66.6977 32.9339 66.7799 33.2651 66.8697C33.5902 66.9599 33.8656 67.0544 34.0914 67.1534C34.3172 67.2525 34.4872 67.3741 34.6017 67.5182C34.716 67.6624 34.7733 67.8545 34.7733 68.0946C34.7733 68.389 34.6875 68.6531 34.5158 68.8873C34.3443 69.1215 34.1019 69.3075 33.7889 69.4456C33.4758 69.5836 33.1055 69.6527 32.6781 69.6527C32.2988 69.6527 31.9466 69.5937 31.6215 69.4757C31.2964 69.3578 31.0315 69.187 30.8268 68.9632L31.2783 68.4278C31.4951 68.6335 31.7254 68.7862 31.9692 68.886ZM36.2589 68.886C36.5026 68.9858 36.763 69.0357 37.04 69.0357C37.2807 69.0357 37.4929 69.0014 37.6767 68.9328C37.8603 68.8641 38.0032 68.7656 38.1056 68.6372C38.2079 68.5088 38.2591 68.361 38.2591 68.1937C38.2591 67.9776 38.1689 67.8291 37.9882 67.748C37.8076 67.6669 37.5396 67.5753 37.1845 67.4732C36.8894 67.3832 36.644 67.2992 36.4485 67.221C36.2528 67.143 36.1083 67.0424 36.015 66.9193C35.9216 66.7962 35.875 66.6266 35.875 66.4104C35.875 66.0863 35.9654 65.8026 36.1459 65.5593C36.3265 65.3162 36.5704 65.1255 36.8775 64.9874C37.1845 64.8493 37.5306 64.7803 37.916 64.7803C38.2712 64.7803 38.5812 64.8378 38.8461 64.9527C39.111 65.0676 39.3277 65.2189 39.4964 65.4063L39.0358 65.8872C38.8852 65.7118 38.7166 65.5848 38.53 65.5062C38.3434 65.4276 38.1267 65.3882 37.8798 65.3882C37.6451 65.3882 37.4358 65.4197 37.2522 65.4825C37.0685 65.5454 36.924 65.6397 36.8187 65.7653C36.7133 65.8911 36.6607 66.0467 36.6607 66.2322C36.6607 66.4178 36.7269 66.548 36.8593 66.6229C36.9917 66.6977 37.2235 66.7799 37.5547 66.8697C37.8798 66.9599 38.1553 67.0544 38.3811 67.1534C38.6068 67.2525 38.7769 67.3741 38.8913 67.5182C39.0056 67.6624 39.0629 67.8545 39.0629 68.0946C39.0629 68.389 38.9771 68.6531 38.8055 68.8873C38.634 69.1215 38.3915 69.3075 38.0785 69.4456C37.7654 69.5836 37.3951 69.6527 36.9677 69.6527C36.5884 69.6527 36.2363 69.5937 35.9112 69.4757C35.5861 69.3578 35.3212 69.187 35.1164 68.9632L35.5679 68.4278C35.7847 68.6335 36.015 68.7862 36.2589 68.886ZM41.4651 64.8529L40.4626 69.562H39.6679L40.6704 64.8529H41.4651ZM41.0677 62.9655H41.8624L41.6547 63.9636H40.86L41.0677 62.9655ZM44.4772 55.8271C44.7724 56.9043 44.9655 57.9817 45.367 59.2074C44.1137 59.8964 42.7215 60.1225 41.311 60.2566C40.4663 60.3035 39.1226 60.0194 38.5884 59.4494C37.8019 59.0685 37.2105 57.4203 37.3617 55.8271C37.3617 54.3188 37.3617 52.8106 37.3617 51.2099C37.331 51.1484 37.4387 50.9483 37.1771 51.0253C36.8385 51.0253 36.4999 51.0253 36.069 51.0253C36.0074 50.9945 35.8073 51.1022 35.8843 50.8406C35.8843 49.7633 35.8843 48.686 35.9766 47.6087C36.4384 47.6087 36.9 47.6087 37.3617 47.5163C37.3617 46.9622 37.3617 46.4082 37.3433 45.7533C37.4633 45.2221 37.186 44.5183 37.5464 44.0653C38.9931 44.3762 40.4398 44.5211 41.9789 44.2843C41.9789 45.3617 41.9789 46.439 41.9789 47.6087C42.6868 47.6087 43.3947 47.6087 44.2538 47.5499C44.3364 48.5446 44.2562 49.7021 44.2874 50.8406C44.2565 50.9022 44.3643 51.1022 44.1027 51.0253C43.3947 51.0253 42.6868 51.0253 41.9789 51.1176C41.9789 52.3181 41.9789 53.5185 42.0447 54.7628C41.4775 56.3706 43.2807 56.2903 44.4772 55.8271ZM42.6798 65.6313C42.9356 65.3642 43.232 65.1555 43.5693 65.0054C43.9063 64.8554 44.2647 64.7803 44.644 64.7803C45.0653 64.7803 45.4161 64.8704 45.6961 65.0505C45.976 65.2306 46.1851 65.4708 46.3237 65.771C46.4621 66.0713 46.5314 66.4044 46.5314 66.7706C46.5314 67.1611 46.4591 67.5304 46.3147 67.8785C46.1701 68.2267 45.9684 68.5346 45.7096 68.8016C45.4507 69.0689 45.1526 69.2776 44.8155 69.4276C44.4783 69.5776 44.117 69.6527 43.7318 69.6527C43.3103 69.6527 42.9611 69.5625 42.6842 69.3825C42.4072 69.2025 42.2011 68.9622 42.0656 68.662C41.9302 68.3619 41.8624 68.0317 41.8624 67.6713C41.8624 67.275 41.9347 66.9027 42.0792 66.5546C42.2237 66.2064 42.4237 65.8985 42.6798 65.6313ZM42.8197 68.2852C42.91 68.4977 43.044 68.6639 43.2216 68.7835C43.3991 68.9033 43.6144 68.9632 43.8673 68.9632C44.1021 68.9632 44.3293 68.9123 44.5491 68.8104C44.7688 68.7086 44.9645 68.5634 45.1361 68.3749C45.3077 68.1864 45.4446 67.9664 45.547 67.715C45.6493 67.4634 45.7005 67.1881 45.7005 66.8887C45.7005 66.6134 45.6554 66.3694 45.5651 66.1569C45.4748 65.9443 45.3423 65.7768 45.1677 65.654C44.993 65.5312 44.7763 65.4699 44.5175 65.4699C44.2827 65.4699 44.057 65.5223 43.8402 65.6271C43.6235 65.7318 43.4277 65.8785 43.2532 66.0671C43.0785 66.2557 42.94 66.4773 42.8378 66.7316C42.7354 66.9861 42.6842 67.263 42.6842 67.5622C42.6842 67.8316 42.7294 68.0727 42.8197 68.2852ZM48.6536 64.8529L48.4369 65.8699C48.5994 65.6479 48.7936 65.4558 49.0193 65.2936C49.2451 65.1315 49.4874 65.0055 49.7463 64.9154C50.0051 64.8253 50.2641 64.7803 50.523 64.7803C50.7758 64.7803 50.9775 64.8269 51.1281 64.9199C51.2785 65.0129 51.3868 65.142 51.4532 65.3071C51.5193 65.4723 51.5525 65.6659 51.5525 65.8879C51.5525 66.0201 51.5419 66.1581 51.5209 66.3022C51.4998 66.4462 51.4742 66.5964 51.4442 66.7523L50.8481 69.562H50.0534L50.6133 66.9359C50.6433 66.8041 50.6644 66.6827 50.6765 66.5718C50.6885 66.461 50.6946 66.3575 50.6946 66.2615C50.6946 65.9978 50.6404 65.8044 50.532 65.6815C50.4237 65.5586 50.2641 65.4971 50.0534 65.4971C49.8547 65.4971 49.6439 65.5509 49.4212 65.6585C49.1984 65.7662 48.9907 65.9111 48.7981 66.0934C48.6054 66.2757 48.4489 66.4864 48.3285 66.7254L47.7235 69.562H46.9287L47.9312 64.8529H48.6536ZM52.9297 68.886C53.1735 68.9858 53.4339 69.0357 53.7109 69.0357C53.9516 69.0357 54.1638 69.0014 54.3475 68.9328C54.5312 68.8641 54.6741 68.7656 54.7765 68.6372C54.8788 68.5088 54.93 68.361 54.93 68.1937C54.93 67.9776 54.8398 67.8291 54.6591 67.748C54.4785 67.6669 54.2105 67.5753 53.8554 67.4732C53.5603 67.3832 53.3149 67.2992 53.1193 67.221C52.9236 67.143 52.7791 67.0424 52.6858 66.9193C52.5925 66.7962 52.5459 66.6266 52.5459 66.4104C52.5459 66.0863 52.6362 65.8026 52.8168 65.5593C52.9975 65.3162 53.2413 65.1255 53.5483 64.9874C53.8554 64.8493 54.2015 64.7803 54.5869 64.7803C54.942 64.7803 55.2521 64.8378 55.517 64.9527C55.7819 65.0676 55.9986 65.2189 56.1672 65.4063L55.7067 65.8872C55.5561 65.7118 55.3875 65.5848 55.201 65.5062C55.0143 65.4276 54.7975 65.3882 54.5507 65.3882C54.3159 65.3882 54.1067 65.4197 53.9231 65.4825C53.7394 65.5454 53.5949 65.6397 53.4896 65.7653C53.3842 65.8911 53.3316 66.0467 53.3316 66.2322C53.3316 66.4178 53.3977 66.548 53.5303 66.6229C53.6626 66.6977 53.8944 66.7799 54.2256 66.8697C54.5507 66.9599 54.8262 67.0544 55.0519 67.1534C55.2777 67.2525 55.4477 67.3741 55.5622 67.5182C55.6765 67.6624 55.7337 67.8545 55.7337 68.0946C55.7337 68.389 55.648 68.6531 55.4764 68.8873C55.3048 69.1215 55.0624 69.3075 54.7494 69.4456C54.4363 69.5836 54.0661 69.6527 53.6386 69.6527C53.2593 69.6527 52.9071 69.5937 52.582 69.4757C52.2569 69.3578 51.9921 69.187 51.7873 68.9632L52.2389 68.4278C52.4556 68.6335 52.6858 68.7862 52.9297 68.886Z" fill="#2B2D42"/>
</g>
<defs>
<clipPath id="clip0_539_169">
<rect width="56.2238" height="71.049" fill="white" transform="translate(0 0.475525)"/>
</clipPath>
</defs>
</svg>
