<svg width="57" height="72" viewBox="0 0 57 72" fill="none" xmlns="http://www.w3.org/2000/svg">
<g clip-path="url(#clip0_539_937)">
<path fill-rule="evenodd" clip-rule="evenodd" d="M55.5609 58.3368C54.922 59.5776 52.9765 60.2644 50.661 60.2358C48.6232 60.2531 46.1023 59.1679 45.3032 58.267C45.0261 58.175 45.4417 58.0829 45.3329 57.8677C45.8319 57.2185 46.1863 56.304 46.7109 55.4687C47.432 55.8633 48.0481 56.339 49.093 56.7274C49.8069 56.9153 51.5481 57.5441 51.8661 56.3747C51.3842 55.5634 49.8126 55.5341 48.6397 55.0248C47.4679 54.5721 46.8005 54.2446 46.0809 53.6026C45.2221 52.8428 45.1859 50.9879 45.88 49.8193C46.263 49.1885 46.7016 48.6131 47.3461 48.24C48.6772 47.3899 50.4637 47.2436 51.9898 47.4921C53.9025 47.8436 54.8098 48.4908 55.542 49.2981C54.9301 50.2094 54.5005 50.9876 53.9477 51.7908C53.9477 51.7908 53.7986 51.8222 53.7628 51.8523C53.2854 51.5194 52.753 51.231 52.0257 50.8786C51.3074 50.5705 50.2179 50.2951 49.6614 50.8169C49.3555 51.9486 50.8637 51.9138 51.8188 52.2712C53.9374 52.9211 55.0072 53.3712 55.8039 54.4726C56.4608 55.5769 56.2379 57.3232 55.5609 58.3368ZM51.6539 27.9005C50.7714 29.526 49.7266 30.9897 48.3709 32.2117C47.739 32.7433 47.097 33.2649 46.3279 33.7149C45.5454 34.1616 45.0722 34.4219 43.6973 34.9925C41.4815 35.889 39.2656 36.1084 36.9812 35.7868C34.9253 35.8605 32.8693 34.0368 30.7256 34.9806C29.5143 35.709 29.2856 37.417 28.222 38.3608C27.4235 39.364 26.3877 40.1306 25.2381 40.8712C24.1479 41.4209 23.3173 42.1318 21.219 42.6273C17.998 43.0589 14.777 43.0089 11.5135 41.8536C9.85787 41.2183 9.36381 40.8438 8.3992 40.1973C6.8199 39.1527 5.5378 37.8117 4.54451 36.1273C4.06843 35.3543 3.75591 34.9041 3.22787 33.4966C2.39969 31.3329 2.22479 29.1691 2.45955 26.9021C2.54542 25.2333 3.52941 22.7507 4.16612 21.687C6.58297 17.4232 8.97933 13.139 11.443 8.85358C12.516 6.598 14.04 4.79214 16.0099 3.369C16.9967 2.61807 17.7679 2.1954 19.7798 1.43764C21.4474 0.794436 23.1151 0.548309 24.7826 0.547333C24.8512 0.493367 24.8512 0.493367 24.8512 0.546427C26.5873 0.53548 28.3235 0.947132 30.1429 1.60658C30.8753 1.86651 31.9098 2.31247 32.5551 2.65266C33.2769 3.06563 35.4878 3.98543 36.9127 4.64816C38.5118 5.35872 40.1109 6.10184 41.7768 6.83715C43.292 7.53272 45.1306 8.30115 45.897 8.75464C47.8997 9.78718 49.4959 11.2249 50.7707 13.0253C51.4189 13.974 51.7605 14.5097 52.433 16.2092C53.5574 18.9652 53.436 21.7212 52.9708 24.5365C52.7568 25.8221 52.0226 27.2562 51.6539 27.9005ZM52.0403 17.5075C51.5507 15.943 50.9402 14.8255 50.5456 14.149C49.3645 12.3353 47.9549 10.8709 46.1312 9.81933C45.1892 9.24605 44.2706 8.84995 42.4814 8.05119C39.1823 6.58656 36.2179 5.19856 33.109 3.8471C32.327 3.41816 30.41 2.4856 28.8229 2.02339C27.067 1.42795 25.3766 1.29506 23.6861 1.40118C23.6861 1.38165 23.6861 1.38165 23.6176 1.45417C22.0414 1.47871 20.4651 1.9893 18.8889 2.64924C17.4614 3.27941 16.7163 3.82242 15.7679 4.58018C13.9477 5.97564 12.7767 7.97401 11.6908 10.0573C9.37437 14.1479 7.07381 18.1859 4.80073 22.2514C4.13507 23.3897 3.31507 25.6752 3.24857 27.2437C3.05822 29.3968 3.27892 31.4467 4.10535 33.4966C4.54423 34.7802 4.93339 35.0795 5.34101 35.8895C6.29045 37.4712 7.57668 38.6715 9.06542 39.6697C9.88794 40.2461 10.6003 40.6302 12.2181 41.2449C15.3025 42.1937 18.3635 42.2545 21.4246 41.7433C23.3934 41.149 23.9501 40.5628 25.1417 39.9847C26.1966 39.2795 27.1182 38.4902 27.8551 37.5167C28.7513 36.5198 29.0104 34.9559 30.2572 34.377C30.93 33.9464 32.0777 33.6465 32.9223 33.9534C33.9658 34.2208 34.9253 34.566 35.8847 34.8066C38.0549 35.3072 40.1565 35.2309 42.2581 34.6411C43.3512 34.3097 44.6656 33.6791 45.1557 33.4207C45.9408 33.0003 46.6235 32.5878 47.2179 32.0871C48.5808 31.0089 49.6548 29.7109 50.5307 28.2156C51.0076 27.3419 51.3918 26.8446 51.8916 25.4089C52.6215 22.7461 52.7208 20.1268 52.0403 17.5075ZM37.1935 31.7794C35.9045 31.6711 34.6156 31.486 33.2977 30.9798C32.174 30.5724 30.9192 29.8172 29.5208 30.1954C29.6444 28.7572 29.3736 27.3191 28.9995 25.7892C28.9381 25.8198 28.7386 25.7127 28.8572 25.9728C29.0484 27.5945 28.6044 29.2162 28.3677 30.9817C27.5095 32.9887 26.4214 34.2738 25.1077 35.5103C23.7857 36.5804 22.3967 37.5836 19.5572 38.3037C19.4925 37.9133 19.8939 37.0563 20.0058 36.6247C21.6743 32.2012 23.2584 29.6222 25.5201 27.0111C26.6319 25.7433 27.7067 24.5963 29.3963 23.7149C30.3771 23.1781 31.6241 23.0927 32.8606 23.3877C34.0494 23.7375 34.4304 24.2506 35.0592 24.9278C35.0592 24.9278 35.26 24.7794 35.2172 24.7948C34.497 23.6334 33.8563 22.743 32.4843 22.1588C29.4494 21.7164 27.6807 23.2692 26.2355 24.155C24.9984 25.4502 23.2914 26.2978 20.8688 27.2907C19.2874 27.8736 17.1474 28.1556 15.8502 27.1001C15.218 26.7358 14.5756 25.5413 14.6035 24.0632C15.0027 21.8128 16.053 21.2751 17.3447 20.3816C18.5751 19.5627 20.802 18.9828 22.599 18.6909C21.9701 18.9841 21.9564 19.1149 21.5267 19.4886C20.8624 20.0604 20.0869 22.0095 20.0068 23.6019C20.91 21.0906 21.9944 19.7484 24.1232 18.6458C26.0295 17.8586 28.454 17.5144 30.4899 18.6233C33.2763 19.7921 35.184 20.7678 36.4142 22.9559C37.7802 24.9586 38.8971 27.8925 39.7541 31.448C39.1524 31.8885 38.0547 31.7092 37.1935 31.7794ZM23.7565 11.3351C23.1739 9.53227 22.383 7.40743 21.8183 5.59983C23.0765 5.14592 24.3348 4.82533 25.593 4.67619C26.2988 4.67619 27.0047 4.67619 27.8474 4.60744C28.0581 6.23334 28.2484 7.97219 28.4698 9.73782C27.1169 10.4293 26.1857 11.3094 24.0279 11.4691C23.9665 11.4385 23.767 11.5456 23.7565 11.3351ZM17.9735 13.2182C17.1907 12.0099 16.5574 10.8593 15.8426 9.69208C15.7305 9.46673 15.3022 8.93564 15.4233 8.69412C16.7514 7.80862 18.33 6.70461 20.6235 6.03477C21.133 6.02445 20.9725 6.88519 21.2549 7.22552C21.4252 7.82786 21.5756 8.3174 21.7309 8.807C22.057 9.90857 22.41 10.9183 22.6786 11.9281C21.8372 12.7203 19.5558 13.1656 17.9735 13.2182ZM4.16584 49.9513C4.92101 48.8003 5.41101 47.9173 7.44318 47.3947C7.78178 47.457 8.12039 47.3084 8.55129 47.587C8.55129 48.7838 8.55129 49.9808 8.55129 51.2697C8.62829 51.3312 8.42815 51.5306 8.2743 51.4311C7.35087 51.5808 6.42745 51.5947 5.43633 52.0775C4.11885 52.2677 4.7243 54.3053 4.5806 55.597C4.5806 57.0087 4.5806 58.4205 4.64654 59.99C3.26514 60.0551 1.75458 59.9914 0.240595 60.0163C0.040525 60.1238 0.25598 59.8169 0.0559096 59.8322C0.0559096 55.8118 0.0559096 51.7915 0.0559096 47.6791C1.37948 47.6791 2.70304 47.6791 4.17619 47.6791C4.22053 48.3849 4.26843 49.0908 4.16584 49.9513ZM0.641364 66.7521C0.831015 66.5674 1.04318 66.396 1.27801 66.238C1.40479 66.1527 1.53269 66.0699 1.66122 65.989C1.58339 65.8678 1.5136 65.7536 1.45409 65.6485C1.35479 65.473 1.28255 65.3121 1.23738 65.1662C1.1922 65.0203 1.16962 64.8819 1.16962 64.7509C1.16962 64.4415 1.25843 64.1633 1.43605 63.9162C1.61353 63.6693 1.84836 63.4713 2.14046 63.3225C2.43241 63.1738 2.74696 63.0993 3.08416 63.0993C3.30094 63.0993 3.50255 63.1371 3.68927 63.2124C3.87577 63.2879 4.0399 63.3964 4.18143 63.538C4.32283 63.6799 4.4357 63.8502 4.52011 64.0492L3.97822 64.5378C3.89381 64.3025 3.75997 64.105 3.57633 63.9452C3.39262 63.7854 3.18647 63.7055 2.95773 63.7055C2.77108 63.7055 2.59948 63.7483 2.44297 63.8338C2.28633 63.9194 2.1599 64.0329 2.06367 64.1746C1.96731 64.3162 1.9192 64.4666 1.9192 64.626C1.9192 64.7034 1.93416 64.7956 1.96437 64.9027C1.99444 65.0098 2.04857 65.1363 2.12689 65.2821C2.20507 65.428 2.31654 65.6049 2.46108 65.8132L3.60675 67.4556C3.67542 67.3273 3.7415 67.1947 3.80213 67.0532C3.96766 66.6667 4.08955 66.2504 4.16787 65.8043H4.25822H4.87227H5.75731L5.62185 66.4285H4.72584C4.63458 66.7468 4.52101 67.0484 4.38458 67.3332C4.26724 67.5781 4.13745 67.8045 3.99668 68.0147L5.07997 69.5677H4.09563L3.4771 68.6603C3.20248 68.9427 2.91053 69.1665 2.60101 69.3314C2.24885 69.5191 1.88899 69.613 1.52185 69.613C1.22682 69.613 0.966469 69.5505 0.740665 69.4252C0.514931 69.3001 0.337238 69.1259 0.207868 68.9022C0.0783572 68.6787 0.0136719 68.4268 0.0136719 68.1467C0.0136719 67.8606 0.0708747 67.6029 0.18528 67.3733C0.299616 67.1439 0.451714 66.9368 0.641364 66.7521ZM1.05227 68.7346C1.22682 68.898 1.44059 68.9797 1.69346 68.9797C1.96437 68.9797 2.2292 68.8996 2.48815 68.739C2.71717 68.5969 2.93255 68.4017 3.13577 68.1596L1.99605 66.4876C1.84185 66.5863 1.69661 66.6858 1.56248 66.7864C1.32458 66.9648 1.13647 67.1549 0.998078 67.357C0.859476 67.5592 0.790315 67.7879 0.790315 68.0435C0.790315 68.3408 0.877588 68.5712 1.05227 68.7346ZM9.17549 65.6711C9.43129 65.4017 9.73227 65.1893 10.0786 65.0336C10.4247 64.878 10.7995 64.8001 11.2029 64.8001C11.6664 64.8001 12.0382 64.9042 12.3182 65.1122C12.5981 65.3203 12.7833 65.5993 12.8736 65.949L12.0518 66.1933C11.9795 65.9642 11.8591 65.7893 11.6905 65.6686C11.5219 65.548 11.3142 65.4877 11.0674 65.4877C10.8265 65.4877 10.5933 65.5414 10.3675 65.6488C10.1418 65.7562 9.93996 65.9071 9.76248 66.101C9.58479 66.2951 9.44332 66.5174 9.33801 66.768C9.23262 67.0188 9.17997 67.2874 9.17997 67.5739C9.17997 67.8425 9.22808 68.0812 9.32451 68.2902C9.42073 68.4991 9.55479 68.6647 9.72633 68.7872C9.89794 68.9096 10.0951 68.9707 10.3179 68.9707C10.4924 68.9707 10.667 68.9376 10.8416 68.8711C11.0162 68.8048 11.1742 68.7159 11.3158 68.6043C11.4572 68.4927 11.5641 68.3706 11.6364 68.2379L12.3679 68.4731C12.2293 68.7024 12.0472 68.9059 11.8215 69.0837C11.5957 69.2617 11.3443 69.4019 11.0674 69.5044C10.7905 69.6069 10.5044 69.6582 10.2095 69.6582C9.81213 69.6582 9.47647 69.5683 9.20255 69.3887C8.92857 69.2093 8.71941 68.9698 8.57493 68.6704C8.43046 68.3712 8.35815 68.0389 8.35815 67.6737C8.35815 67.2966 8.43046 66.9358 8.57493 66.5916C8.71941 66.2475 8.91948 65.9405 9.17549 65.6711ZM13.9708 65.6487C14.2266 65.3823 14.5231 65.1743 14.8604 65.0246C15.1974 64.875 15.5557 64.8001 15.935 64.8001C16.3564 64.8001 16.7072 64.89 16.9871 65.0695C17.2671 65.2491 17.4762 65.4886 17.6147 65.7879C17.7532 66.0873 17.8225 66.4195 17.8225 66.7846C17.8225 67.1739 17.7502 67.5421 17.6057 67.8893C17.4612 68.2364 17.2595 68.5433 17.0007 68.8096C16.7417 69.0761 16.4437 69.2842 16.1066 69.4337C15.7693 69.5833 15.4081 69.6582 15.0229 69.6582C14.6014 69.6582 14.2522 69.5683 13.9753 69.3887C13.6984 69.2093 13.4922 68.9698 13.3567 68.6704C13.2213 68.3712 13.1535 68.0419 13.1535 67.6826C13.1535 67.2875 13.2258 66.9163 13.3702 66.5692C13.5148 66.222 13.7149 65.9151 13.9708 65.6487ZM14.1108 68.2947C14.2011 68.5066 14.335 68.6723 14.5127 68.7916C14.6902 68.911 14.9055 68.9707 15.1584 68.9707C15.3932 68.9707 15.6204 68.9199 15.8402 68.8184C16.0599 68.7169 16.2556 68.5721 16.4272 68.3842C16.5988 68.1962 16.7356 67.9769 16.8381 67.7262C16.9404 67.4754 16.9916 67.2009 16.9916 66.9023C16.9916 66.6278 16.9465 66.3845 16.8562 66.1726C16.7658 65.9608 16.6333 65.7937 16.4588 65.6713C16.2841 65.5488 16.0674 65.4877 15.8086 65.4877C15.5738 65.4877 15.348 65.54 15.1313 65.6444C14.9145 65.7489 14.7188 65.8951 14.5443 66.0832C14.3696 66.2712 14.2312 66.4921 14.1288 66.7457C14.0264 66.9994 13.9753 67.2755 13.9753 67.5739C13.9753 67.8425 14.0205 68.0828 14.1108 68.2947ZM21.5407 56.1801C21.6165 57.3014 21.5426 58.572 21.6538 59.9056C20.9425 60.2279 19.7614 60.3664 18.8 60.2005C17.7441 59.9548 17.4298 59.5599 17.0467 58.7274C17.0467 58.6353 17.0467 58.5432 17 58.2626C16.3626 58.6778 16.0626 59.2562 15.319 59.548C14.001 60.4756 11.7676 60.4724 10.3623 59.6638C9.4894 59.0427 9.02136 58.606 8.53773 57.4081C8.02073 55.1592 9.19675 53.5862 10.2403 52.9987C11.4066 52.1473 14.0015 51.6218 15.8463 52.3746C15.9694 52.3746 15.954 52.3746 16.2051 52.2968C16.3418 50.8229 15.357 50.512 13.8355 50.4993C12.4626 50.5072 11.338 51.1748 10.4905 51.7301C10.3981 51.7301 10.3058 51.7301 10.1985 51.6296C9.73066 50.6628 9.45367 50.01 8.98353 49.0356C9.99584 48.2525 11.7831 47.6571 13.4409 47.4466C15.9274 47.0932 19.0577 48.0923 19.7991 49.4411C20.3565 50.0124 20.8383 51.7145 20.7098 52.9715C20.9223 53.9499 20.3093 55.911 21.5407 56.1801ZM16.2 54.9273C15.6979 54.5691 14.8356 54.4894 14.1948 54.4875C13.4862 54.6522 12.9793 54.929 12.7788 55.3843C12.6139 56.3611 12.8379 56.7979 13.6295 56.9624C15.2743 56.9559 16.4505 56.6458 16.2 54.9273ZM19.9447 64.8725L19.728 65.8866C19.8905 65.6652 20.0847 65.4737 20.3105 65.312C20.5363 65.1503 20.7785 65.0247 21.0374 64.9348C21.2963 64.845 21.5551 64.8001 21.8141 64.8001C22.067 64.8001 22.2686 64.8466 22.4192 64.9394C22.5696 65.032 22.6779 65.1608 22.7443 65.3254C22.8105 65.49 22.8436 65.6831 22.8436 65.9045C22.8436 66.0363 22.833 66.1739 22.812 66.3175C22.7908 66.4612 22.7653 66.6109 22.7352 66.7663L22.1392 69.5677H21.3445L21.9044 66.9494C21.9344 66.8179 21.9555 66.697 21.9677 66.5864C21.9796 66.4759 21.9857 66.3727 21.9857 66.277C21.9857 66.014 21.9315 65.8212 21.8231 65.6987C21.7148 65.5762 21.5551 65.5148 21.3445 65.5148C21.1458 65.5148 20.935 65.5685 20.7123 65.6758C20.4266 65.7831 20.2819 65.9276 20.0892 66.1093C19.8965 66.2911 19.74 66.5012 19.6196 66.7395L19.0146 69.5677H18.2198L19.2223 64.8725H19.9447ZM23.7738 65.4695L23.9093 64.8453H24.5143L24.5323 64.7458C24.6105 64.3538 24.7356 64.0191 24.9072 63.7416C25.0787 63.4643 25.2865 63.2502 25.5302 63.0993C25.7741 62.9486 26.0374 62.8732 26.3205 62.8732C26.495 62.8732 26.6637 62.8989 26.8262 62.9501C26.9888 63.0014 27.1333 63.0721 27.2597 63.1627L26.9346 63.7507C26.8682 63.6905 26.7795 63.6421 26.6681 63.606C26.5567 63.5698 26.4469 63.5516 26.3386 63.5516C26.0977 63.5516 25.8915 63.6527 25.7199 63.8547C25.5484 64.0569 25.4204 64.3448 25.3361 64.7187L25.309 64.8453H26.4921L26.3566 65.4695H25.1735L23.9002 71.4947H23.1055L24.3788 65.4695H23.7738ZM27.1965 65.6711C27.4552 65.4017 27.7578 65.1893 28.104 65.0336C28.4502 64.878 28.8279 64.8001 29.2374 64.8001C29.5444 64.8001 29.8168 64.848 30.0547 64.9438C30.2925 65.0397 30.4776 65.1805 30.6101 65.3662C30.7425 65.552 30.8088 65.7856 30.8088 66.0672C30.8088 66.5406 30.5979 66.9001 30.1766 67.1457C29.7551 67.3914 29.1079 67.5141 28.235 67.5141C28.0724 67.5141 27.8858 67.5096 27.6751 67.5005C27.531 67.4943 27.3704 67.4844 27.1955 67.4712C27.1905 67.5378 27.1874 67.6049 27.1874 67.6726C27.1874 67.9174 27.2295 68.1458 27.3139 68.3579C27.3981 68.5699 27.5275 68.7402 27.7022 68.8686C27.8767 68.997 28.0964 69.0611 28.3614 69.0611C28.6383 69.0611 28.9092 68.9903 29.1742 68.8485C29.4391 68.7068 29.6467 68.5153 29.7973 68.2741L30.4385 68.464C30.294 68.6933 30.1044 68.8983 29.8695 69.0792C29.6348 69.2602 29.3774 69.4019 29.0974 69.5044C28.8174 69.6069 28.5299 69.6582 28.235 69.6582C27.8435 69.6582 27.5094 69.5698 27.2326 69.3933C26.9556 69.2167 26.7449 68.9788 26.6004 68.6794C26.4559 68.38 26.3837 68.0449 26.3837 67.6737C26.3837 67.2966 26.4544 66.9358 26.5959 66.5916C26.7373 66.2475 26.9375 65.9405 27.1965 65.6711ZM27.7338 66.9441C27.9235 66.9563 28.0995 66.9623 28.2621 66.9623C28.7195 66.9623 29.0808 66.9235 29.3458 66.846C29.6107 66.7686 29.8019 66.6612 29.9193 66.5241C30.0366 66.387 30.0954 66.232 30.0954 66.059C30.0954 65.9041 30.0577 65.7788 29.9825 65.6834C29.9071 65.588 29.8019 65.5165 29.6664 65.4687C29.5309 65.4211 29.3698 65.3972 29.1833 65.3972C28.8821 65.3972 28.6098 65.4599 28.3659 65.5854C28.1221 65.7109 27.9113 65.8811 27.7338 66.096C27.5561 66.311 27.4207 66.5545 27.3274 66.8262C27.3167 66.8571 27.3089 66.8887 27.2995 66.9199C27.4607 66.928 27.6065 66.9361 27.7338 66.9441ZM31.6572 47.4144C33.8993 47.9085 34.4055 48.5267 34.9828 50.6099C35.1577 52.0063 34.9937 53.2953 35.0655 54.5843C35.0533 56.3949 35.0532 58.1136 35.0532 59.8322C35.0379 60.0931 34.8378 59.9857 34.7763 60.0163C33.3604 60.0163 32.0368 60.0163 30.7133 60.0163C30.7286 59.8169 30.4208 60.0317 30.5286 59.8322C30.5286 58.3591 30.5286 56.978 30.5286 55.597C30.4119 54.2832 30.8486 52.4463 30.0106 51.6423C29.8045 51.5386 29.811 51.474 29.5058 51.3786C27.6453 51.6889 26.9424 52.4656 27.0068 54.5228C27.0196 56.3336 27.0196 58.0829 27.0196 59.8322C27.0965 60.0931 26.8965 59.9857 26.8349 60.0163C25.419 60.0163 24.0954 60.0163 22.7719 60.0163C22.5102 60.0931 22.618 59.8936 22.5872 59.8322C22.5872 55.7198 22.5872 51.6994 22.5872 47.6791C24.0031 47.7058 25.3267 47.6374 26.6502 47.7074C26.6004 48.3226 26.7333 48.7824 26.591 49.2419C26.5879 49.2433 26.587 49.2442 26.5904 49.2442C26.5906 49.2435 26.5908 49.2427 26.591 49.2419C26.6177 49.2304 26.8538 49.176 26.8538 49.176C27.354 48.2364 29.6105 47.2223 31.6572 47.4144ZM31.9693 68.8938C32.213 68.9933 32.4734 69.0431 32.7504 69.0431C32.9912 69.0431 33.2034 69.0088 33.3871 68.9404C33.5707 68.8719 33.7136 68.7737 33.816 68.6457C33.9184 68.5176 33.9695 68.3703 33.9695 68.2035C33.9695 67.9881 33.8793 67.84 33.6986 67.7591C33.518 67.6782 33.25 67.5869 32.8949 67.4851C32.5998 67.3954 32.3544 67.3116 32.1589 67.2336C31.9632 67.1559 31.8187 67.0556 31.7254 66.9328C31.632 66.8101 31.5854 66.641 31.5854 66.4254C31.5854 66.1023 31.6758 65.8194 31.8563 65.5769C32.037 65.3344 32.2808 65.1443 32.5879 65.0066C32.8949 64.8689 33.241 64.8001 33.6264 64.8001C33.9816 64.8001 34.2916 64.8575 34.5565 64.972C34.8214 65.0866 35.0381 65.2374 35.2068 65.4243L34.7462 65.9038C34.5956 65.7289 34.427 65.6023 34.2405 65.5239C34.0538 65.4455 33.8371 65.4062 33.5902 65.4062C33.3555 65.4062 33.1462 65.4376 32.9626 65.5002C32.7789 65.563 32.6344 65.657 32.5291 65.7823C32.4237 65.9076 32.3711 66.0628 32.3711 66.2477C32.3711 66.4329 32.4373 66.5627 32.5698 66.6373C32.7021 66.7119 32.934 66.7939 33.2651 66.8834C33.5902 66.9733 33.8657 67.0676 34.0915 67.1662C34.3172 67.2651 34.4873 67.3863 34.6017 67.53C34.716 67.6737 34.7733 67.8653 34.7733 68.1047C34.7733 68.3982 34.6875 68.6615 34.5159 68.895C34.3444 69.1285 34.1019 69.314 33.7889 69.4517C33.4758 69.5893 33.1056 69.6582 32.6781 69.6582C32.2988 69.6582 31.9467 69.5994 31.6216 69.4818C31.2965 69.3642 31.0316 69.1939 30.8268 68.9707L31.2784 68.4369C31.4951 68.642 31.7254 68.7942 31.9693 68.8938ZM36.2589 68.8938C36.5027 68.9933 36.763 69.0431 37.04 69.0431C37.2808 69.0431 37.493 69.0088 37.6767 68.9404C37.8603 68.8719 38.0033 68.7737 38.1057 68.6457C38.208 68.5176 38.2592 68.3703 38.2592 68.2035C38.2592 67.9881 38.1689 67.84 37.9883 67.7591C37.8077 67.6782 37.5397 67.5869 37.1846 67.4851C36.8895 67.3954 36.6441 67.3116 36.4486 67.2336C36.2528 67.1559 36.1084 67.0556 36.0151 66.9328C35.9216 66.8101 35.8751 66.641 35.8751 66.4254C35.8751 66.1023 35.9654 65.8194 36.146 65.5769C36.3266 65.3344 36.5705 65.1443 36.8775 65.0066C37.1846 64.8689 37.5307 64.8001 37.916 64.8001C38.2712 64.8001 38.5812 64.8575 38.8462 64.972C39.1111 65.0866 39.3278 65.2374 39.4965 65.4243L39.0358 65.9038C38.8853 65.7289 38.7167 65.6023 38.5301 65.5239C38.3435 65.4455 38.1267 65.4062 37.8799 65.4062C37.6451 65.4062 37.4358 65.4376 37.2523 65.5002C37.0686 65.563 36.9241 65.657 36.8188 65.7823C36.7134 65.9076 36.6607 66.0628 36.6607 66.2477C36.6607 66.4329 36.727 66.5627 36.8594 66.6373C36.9918 66.7119 37.2236 66.7939 37.5548 66.8834C37.8799 66.9733 38.1553 67.0676 38.3812 67.1662C38.6069 67.2651 38.777 67.3863 38.8914 67.53C39.0057 67.6737 39.063 67.8653 39.063 68.1047C39.063 68.3982 38.9772 68.6615 38.8056 68.895C38.634 69.1285 38.3916 69.314 38.0786 69.4517C37.7655 69.5893 37.3952 69.6582 36.9678 69.6582C36.5885 69.6582 36.2363 69.5994 35.9112 69.4818C35.5861 69.3642 35.3212 69.1939 35.1165 68.9707L35.568 68.4369C35.7848 68.642 36.0151 68.7942 36.2589 68.8938ZM41.4651 64.8725L40.4627 69.5677H39.668L40.6705 64.8725H41.4651ZM41.0678 62.9907H41.8625L41.6548 63.9859H40.8601L41.0678 62.9907ZM44.4773 55.8733C44.7725 56.9474 44.9656 58.0215 45.3671 59.2436C44.1137 59.9306 42.7216 60.156 41.3111 60.2897C40.4664 60.3365 39.1227 60.0532 38.5885 59.4849C37.802 59.1052 37.2106 57.4618 37.3618 55.8733C37.3618 54.3695 37.3618 52.8656 37.3618 51.2697C37.331 51.2084 37.4388 51.0089 37.1772 51.0856C36.8386 51.0856 36.5 51.0856 36.0691 51.0856C36.0074 51.0549 35.8074 51.1623 35.8844 50.9014C35.8844 49.8273 35.8844 48.7532 35.9767 47.6791C36.4384 47.6791 36.9001 47.6791 37.3618 47.587C37.3618 47.0345 37.3618 46.4821 37.3434 45.8291C37.4633 45.2995 37.1861 44.5978 37.5465 44.1461C38.9932 44.4561 40.4399 44.6005 41.9789 44.3645C41.9789 45.4387 41.9789 46.5129 41.9789 47.6791C42.6868 47.6791 43.3948 47.6791 44.2539 47.6204C44.3365 48.6123 44.2563 49.7663 44.2874 50.9014C44.2566 50.9629 44.3644 51.1624 44.1028 51.0856C43.3948 51.0856 42.6868 51.0856 41.9789 51.1777C41.9789 52.3746 41.9789 53.5715 42.0448 54.8121C41.4775 56.4152 43.2807 56.3351 44.4773 55.8733ZM42.6798 65.6487C42.9356 65.3823 43.2321 65.1743 43.5693 65.0246C43.9064 64.875 44.2647 64.8001 44.644 64.8001C45.0653 64.8001 45.4161 64.89 45.6961 65.0695C45.976 65.2491 46.1851 65.4886 46.3237 65.7879C46.4621 66.0873 46.5314 66.4195 46.5314 66.7846C46.5314 67.1739 46.4592 67.5421 46.3147 67.8893C46.1702 68.2364 45.9684 68.5433 45.7096 68.8096C45.4507 69.0761 45.1527 69.2842 44.8156 69.4337C44.4784 69.5833 44.1171 69.6582 43.7319 69.6582C43.3104 69.6582 42.9612 69.5683 42.6843 69.3887C42.4073 69.2093 42.2012 68.9698 42.0657 68.6704C41.9302 68.3712 41.8625 68.0419 41.8625 67.6826C41.8625 67.2875 41.9348 66.9163 42.0793 66.5692C42.2237 66.222 42.4238 65.9151 42.6798 65.6487ZM42.8198 68.2947C42.9101 68.5066 43.044 68.6723 43.2216 68.7916C43.3991 68.911 43.6145 68.9707 43.8674 68.9707C44.1021 68.9707 44.3293 68.9199 44.5492 68.8184C44.7688 68.7169 44.9646 68.5721 45.1362 68.3842C45.3078 68.1962 45.4446 67.9769 45.5471 67.7262C45.6494 67.4754 45.7006 67.2009 45.7006 66.9023C45.7006 66.6278 45.6554 66.3845 45.5651 66.1726C45.4749 65.9608 45.3423 65.7937 45.1678 65.6713C44.9931 65.5488 44.7763 65.4877 44.5176 65.4877C44.2828 65.4877 44.057 65.54 43.8402 65.6444C43.6235 65.7489 43.4278 65.8951 43.2533 66.0832C43.0786 66.2712 42.9401 66.4921 42.8379 66.7457C42.7354 66.9994 42.6843 67.2755 42.6843 67.5739C42.6843 67.8425 42.7295 68.0828 42.8198 68.2947ZM48.6537 64.8725L48.437 65.8866C48.5995 65.6652 48.7937 65.4737 49.0194 65.312C49.2452 65.1503 49.4874 65.0247 49.7464 64.9348C50.0052 64.845 50.2642 64.8001 50.523 64.8001C50.7759 64.8001 50.9776 64.8466 51.1281 64.9394C51.2786 65.032 51.3869 65.1608 51.4533 65.3254C51.5194 65.49 51.5526 65.6831 51.5526 65.9045C51.5526 66.0363 51.542 66.1739 51.5209 66.3175C51.4998 66.4612 51.4742 66.6109 51.4442 66.7663L50.8481 69.5677H50.0535L50.6134 66.9494C50.6434 66.8179 50.6644 66.697 50.6766 66.5864C50.6886 66.4759 50.6946 66.3727 50.6946 66.277C50.6946 66.014 50.6405 65.8212 50.5321 65.6987C50.4237 65.5762 50.2642 65.5148 50.0535 65.5148C49.8548 65.5148 49.644 65.5685 49.4213 65.6758C49.1985 65.7831 48.9908 65.9276 48.7981 66.1093C48.6054 66.2911 48.4489 66.5012 48.3286 66.7395L47.7235 69.5677H46.9288L47.9312 64.8725H48.6537ZM52.9298 68.8938C53.1736 68.9933 53.4339 69.0431 53.7109 69.0431C53.9516 69.0431 54.1639 69.0088 54.3476 68.9404C54.5312 68.8719 54.6742 68.7737 54.7765 68.6457C54.8788 68.5176 54.9301 68.3703 54.9301 68.2035C54.9301 67.9881 54.8398 67.84 54.6592 67.7591C54.4786 67.6782 54.2106 67.5869 53.8554 67.4851C53.5604 67.3954 53.315 67.3116 53.1194 67.2336C52.9237 67.1559 52.7792 67.0556 52.6859 66.9328C52.5926 66.8101 52.546 66.641 52.546 66.4254C52.546 66.1023 52.6363 65.8194 52.8169 65.5769C52.9975 65.3344 53.2414 65.1443 53.5484 65.0066C53.8554 64.8689 54.2016 64.8001 54.587 64.8001C54.9421 64.8001 55.2521 64.8575 55.5171 64.972C55.7819 65.0866 55.9987 65.2374 56.1673 65.4243L55.7067 65.9038C55.5562 65.7289 55.3876 65.6023 55.201 65.5239C55.0144 65.4455 54.7976 65.4062 54.5508 65.4062C54.316 65.4062 54.1068 65.4376 53.9232 65.5002C53.7395 65.563 53.5949 65.657 53.4897 65.7823C53.3843 65.9076 53.3316 66.0628 53.3316 66.2477C53.3316 66.4329 53.3978 66.5627 53.5303 66.6373C53.6627 66.7119 53.8945 66.7939 54.2257 66.8834C54.5508 66.9733 54.8263 67.0676 55.052 67.1662C55.2778 67.2651 55.4478 67.3863 55.5623 67.53C55.6765 67.6737 55.7338 67.8653 55.7338 68.1047C55.7338 68.3982 55.6481 68.6615 55.4765 68.895C55.3049 69.1285 55.0625 69.314 54.7495 69.4517C54.4364 69.5893 54.0661 69.6582 53.6387 69.6582C53.2594 69.6582 52.9072 69.5994 52.5821 69.4818C52.257 69.3642 51.9921 69.1939 51.7874 68.9707L52.2389 68.4369C52.4556 68.642 52.6859 68.7942 52.9298 68.8938Z" fill="white"/>
</g>
<defs>
<clipPath id="clip0_539_937">
<rect width="56.2238" height="71.049" fill="white" transform="translate(0 0.475525)"/>
</clipPath>
</defs>
</svg>
