<svg width="31" height="31" viewBox="0 0 31 31" fill="none" xmlns="http://www.w3.org/2000/svg">
<path fill-rule="evenodd" clip-rule="evenodd" d="M24.2506 13.9478C19.4691 11.1082 11.5822 10.8471 7.01773 12.2324C6.28458 12.4548 5.50946 12.0414 5.28734 11.3082C5.06519 10.5747 5.47867 9.80007 6.21214 9.57727C11.4519 7.9868 20.1623 8.29393 25.6668 11.5615C26.326 11.953 26.5423 12.8044 26.1516 13.4626C25.7605 14.1219 24.9083 14.3393 24.2506 13.9478ZM24.094 18.1536C23.7585 18.6979 23.0468 18.8687 22.5032 18.5343C18.5169 16.0841 12.4383 15.3742 7.7222 16.8057C7.11057 16.9903 6.46475 16.6459 6.27893 16.0352C6.09472 15.4237 6.4396 14.779 7.05016 14.593C12.4376 12.9581 19.1351 13.7499 23.7136 16.5636C24.2572 16.8986 24.4283 17.6105 24.094 18.1536ZM22.279 22.1927C22.0124 22.63 21.4433 22.7668 21.0077 22.5005C17.5244 20.3716 13.1401 19.8909 7.97674 21.0702C7.47919 21.1842 6.98321 20.8726 6.86967 20.375C6.75581 19.8776 7.06645 19.3816 7.56509 19.2681C13.2156 17.9765 18.0624 18.5323 21.9722 20.9214C22.4081 21.1877 22.5454 21.7569 22.279 22.1927ZM15.4761 0.797596C7.28397 0.797596 0.642639 7.43878 0.642639 15.6309C0.642639 23.8239 7.28397 30.4645 15.4761 30.4645C23.6685 30.4645 30.3096 23.8239 30.3096 15.6309C30.3096 7.43878 23.6685 0.797596 15.4761 0.797596Z" fill="#E1DDDC"/>
</svg>
