<svg width="31" height="31" viewBox="0 0 31 31" fill="none" xmlns="http://www.w3.org/2000/svg">
<path fill-rule="evenodd" clip-rule="evenodd" d="M24.2505 13.9478C19.4691 11.1082 11.5822 10.8471 7.01767 12.2324C6.28452 12.4548 5.5094 12.0414 5.28728 11.3082C5.06512 10.5747 5.47861 9.80007 6.21208 9.57727C11.4518 7.9868 20.1622 8.29393 25.6667 11.5615C26.326 11.953 26.5423 12.8044 26.1515 13.4626C25.7604 14.1219 24.9082 14.3393 24.2505 13.9478ZM24.094 18.1536C23.7585 18.6979 23.0468 18.8687 22.5032 18.5343C18.5168 16.0841 12.4382 15.3742 7.72214 16.8057C7.11051 16.9903 6.46468 16.6459 6.27887 16.0352C6.09465 15.4237 6.43954 14.779 7.05009 14.593C12.4375 12.9581 19.135 13.7499 23.7135 16.5636C24.2571 16.8986 24.4282 17.6105 24.094 18.1536ZM22.2789 22.1927C22.0123 22.63 21.4432 22.7668 21.0077 22.5005C17.5244 20.3716 13.14 19.8909 7.97668 21.0702C7.47913 21.1842 6.98315 20.8726 6.86961 20.375C6.75575 19.8776 7.06639 19.3816 7.56503 19.2681C13.2155 17.9765 18.0623 18.5323 21.9721 20.9214C22.4081 21.1877 22.5453 21.7569 22.2789 22.1927ZM15.476 0.797596C7.28391 0.797596 0.642578 7.43878 0.642578 15.6309C0.642578 23.8239 7.28391 30.4645 15.476 30.4645C23.6685 30.4645 30.3095 23.8239 30.3095 15.6309C30.3095 7.43878 23.6685 0.797596 15.476 0.797596Z" fill="#2B2D42"/>
</svg>
