<svg width="65" height="21" viewBox="0 0 65 21" fill="none" xmlns="http://www.w3.org/2000/svg">
<path d="M62.9281 17.1443C62.0204 17.1443 61.3101 16.3945 61.3101 15.5262C61.3101 14.6185 62.0204 13.8687 62.9676 13.8687C63.8753 13.8687 64.5857 14.6185 64.5857 15.4868C64.5857 16.3945 63.8753 17.1443 62.9281 17.1443ZM62.9676 14.0265C62.1388 14.0265 61.5074 14.6974 61.5074 15.5262C61.5074 16.355 62.1388 16.9864 62.9676 16.9864C63.7964 16.9864 64.4278 16.3155 64.4278 15.4868C64.4278 14.6974 63.7964 14.0265 62.9676 14.0265ZM63.3228 15.6841L63.7964 16.3155H63.4017L62.9676 15.7235H62.6124V16.3155H62.2967V14.579H63.0466C63.4412 14.579 63.7175 14.7764 63.7175 15.1316C63.7175 15.4078 63.5596 15.6051 63.3228 15.6841ZM63.0466 14.8948H62.6124V15.4473H63.0466C63.2439 15.4473 63.4017 15.3289 63.4017 15.171C63.3623 14.9737 63.2439 14.8948 63.0466 14.8948Z" fill="#2B2D42"/>
<path d="M7.08449 9.01444C4.47979 8.38299 4.00618 7.94887 4.00618 7.04117C4.00618 6.17293 4.83499 5.58094 6.01894 5.58094C7.20289 5.58094 8.3474 6.01507 9.57083 6.92278C9.61033 6.96224 9.64975 6.96224 9.68923 6.96224C9.7287 6.96224 9.76818 6.92277 9.80762 6.8833L11.0705 5.10736C11.11 5.02843 11.11 4.9495 11.031 4.87057C9.57081 3.72607 7.95274 3.13408 6.05838 3.13408C3.25635 3.13408 1.28307 4.8311 1.28307 7.2385C1.28307 9.80375 2.98007 10.7509 5.90052 11.4613C8.38684 12.0533 8.82097 12.5269 8.82097 13.3556C8.82097 14.3028 7.95274 14.8948 6.61089 14.8948C5.1112 14.8948 3.84833 14.3817 2.46701 13.1978C2.42754 13.1583 2.38811 13.1583 2.34864 13.1583C2.30916 13.1583 2.2697 13.1978 2.23026 13.2372L0.809471 14.9343C0.730559 15.0132 0.770032 15.0921 0.809471 15.1711C2.42755 16.5918 4.40085 17.3811 6.53198 17.3811C9.57081 17.3811 11.5046 15.7236 11.5046 13.1583C11.5441 10.9483 10.2417 9.76429 7.08449 9.01444Z" fill="#2B2D42"/>
<path d="M18.3717 6.44915C17.0694 6.44915 16.0038 6.9622 15.0961 8.02777V6.8438C15.0961 6.76487 15.0172 6.68594 14.9382 6.68594H12.6098C12.5309 6.68594 12.4519 6.76487 12.4519 6.8438V20.0647C12.4519 20.1437 12.5309 20.2226 12.6098 20.2226H14.9382C15.0172 20.2226 15.0961 20.1437 15.0961 20.0647V15.8814C15.9643 16.868 17.0694 17.3811 18.3717 17.3811C20.8186 17.3811 23.2655 15.5262 23.2655 11.9349C23.2655 8.30403 20.8186 6.44915 18.3717 6.44915ZM20.5818 11.8954C20.5818 13.7108 19.4768 14.9737 17.8587 14.9737C16.2801 14.9737 15.0566 13.6319 15.0566 11.8954C15.0566 10.1194 16.2406 8.81708 17.8587 8.81708C19.4373 8.81708 20.5818 10.1194 20.5818 11.8954Z" fill="#2B2D42"/>
<path d="M29.5799 6.44915C26.4621 6.44915 23.9758 8.85654 23.9758 11.9349C23.9758 14.9737 26.4227 17.3811 29.5405 17.3811C32.6977 17.3811 35.1445 14.9737 35.1445 11.8954C35.184 8.85654 32.7371 6.44915 29.5799 6.44915ZM29.5799 15.0132C27.9224 15.0132 26.6594 13.6713 26.6594 11.8954C26.6594 10.1194 27.8829 8.81708 29.5405 8.81708C31.2375 8.81708 32.5004 10.1589 32.5004 11.9349C32.5004 13.7108 31.2769 15.0132 29.5799 15.0132Z" fill="#2B2D42"/>
<path d="M41.8537 6.6465H39.2885V4.04177C39.2885 3.96285 39.2095 3.88391 39.1306 3.88391H36.8021C36.7232 3.88391 36.6443 3.96285 36.6443 4.04177V6.6465H35.5392C35.4603 6.6465 35.3813 6.72543 35.3813 6.80436V8.8171C35.3813 8.89604 35.4603 8.97496 35.5392 8.97496H36.6443V14.1449C36.6443 16.2366 37.6703 17.3022 39.7226 17.3022C40.5513 17.3022 41.2617 17.1443 41.8932 16.7497C41.9326 16.7102 41.9721 16.6707 41.9721 16.5918V14.6975C41.9721 14.658 41.9326 14.5791 41.8932 14.5396C41.8537 14.5001 41.7748 14.5001 41.7353 14.5396C41.3012 14.7764 40.8671 14.8553 40.354 14.8553C39.6042 14.8553 39.2885 14.5001 39.2885 13.7503V8.97496H41.8537C41.9326 8.97496 42.0116 8.89604 42.0116 8.8171V6.80436C42.0511 6.72543 41.9721 6.6465 41.8537 6.6465Z" fill="#2B2D42"/>
<path d="M50.7729 6.6465V6.33078C50.7729 5.38361 51.1281 4.94948 51.9569 4.94948C52.4304 4.94948 52.8251 5.02841 53.2592 5.18627C53.2987 5.18627 53.3776 5.18628 53.4171 5.14681C53.4565 5.10735 53.496 5.06788 53.496 4.98895V3.01568C53.496 2.93674 53.4565 2.85781 53.3776 2.85781C52.904 2.73942 52.312 2.58155 51.4438 2.58155C49.3127 2.58155 48.1682 3.80499 48.1682 6.09398V6.56757H47.0631C46.9842 6.56757 46.9053 6.6465 46.9053 6.72543V8.73817C46.9053 8.8171 46.9842 8.89603 47.0631 8.89603H48.1682V16.8681C48.1682 16.947 48.2471 17.0259 48.326 17.0259H50.6545C50.7334 17.0259 50.8123 16.947 50.8123 16.8681V8.97496H52.983L56.298 16.947C55.9034 17.7758 55.5482 17.9336 55.0352 17.9336C54.6405 17.9336 54.2064 17.8152 53.7723 17.5784C53.7328 17.539 53.6933 17.539 53.6538 17.5784C53.6144 17.5784 53.5749 17.6179 53.5355 17.6574L52.7462 19.3939C52.7067 19.4728 52.7462 19.5517 52.8251 19.6306C53.6539 20.0648 54.4037 20.2621 55.3114 20.2621C57.0479 20.2621 57.9951 19.4728 58.8239 17.3022L62.8493 6.88329C62.8888 6.84383 62.8493 6.7649 62.8493 6.72543C62.8099 6.68596 62.7704 6.6465 62.6914 6.6465H60.2841C60.2051 6.6465 60.1657 6.68596 60.1262 6.76489L57.6399 13.8687L54.9168 6.76489C54.8773 6.68596 54.8378 6.6465 54.7589 6.6465H50.7729Z" fill="#2B2D42"/>
<path d="M45.6028 6.64651H43.2744C43.1954 6.64651 43.1165 6.72544 43.1165 6.80437V16.947C43.1165 17.0259 43.1954 17.1049 43.2744 17.1049H45.6028C45.6818 17.1049 45.7607 17.0259 45.7607 16.947V6.80437C45.8002 6.72544 45.7212 6.64651 45.6028 6.64651Z" fill="#2B2D42"/>
<path d="M43.0352 0.619415C42.1275 0.619415 41.3777 1.36926 41.3777 2.27696C41.3777 3.18467 42.1275 3.93451 43.0352 3.93451C43.943 3.93451 44.6928 3.18467 44.6928 2.27696C44.6928 1.36926 43.943 0.619415 43.0352 0.619415Z" fill="#2B2D42"/>
</svg>
