<svg width="65" height="21" viewBox="0 0 65 21" fill="none" xmlns="http://www.w3.org/2000/svg">
<path d="M62.9283 17.1443C62.0206 17.1443 61.3102 16.3945 61.3102 15.5262C61.3102 14.6185 62.0205 13.8687 62.9677 13.8687C63.8754 13.8687 64.5858 14.6185 64.5858 15.4868C64.5858 16.3945 63.8754 17.1443 62.9283 17.1443ZM62.9677 14.0265C62.139 14.0265 61.5075 14.6974 61.5075 15.5262C61.5075 16.355 62.139 16.9864 62.9677 16.9864C63.7965 16.9864 64.428 16.3155 64.428 15.4868C64.428 14.6974 63.7965 14.0265 62.9677 14.0265ZM63.3229 15.6841L63.7965 16.3155H63.4019L62.9677 15.7235H62.6126V16.3155H62.2968V14.579H63.0467C63.4413 14.579 63.7176 14.7764 63.7176 15.1316C63.7176 15.4078 63.5597 15.6051 63.3229 15.6841ZM63.0467 14.8948H62.6126V15.4473H63.0467C63.244 15.4473 63.4019 15.3289 63.4019 15.171C63.3624 14.9737 63.244 14.8948 63.0467 14.8948Z" fill="#E1DDDC"/>
<path d="M7.08455 9.01444C4.47985 8.38299 4.00624 7.94887 4.00624 7.04117C4.00624 6.17293 4.83505 5.58094 6.019 5.58094C7.20295 5.58094 8.34747 6.01507 9.57089 6.92278C9.61039 6.96224 9.64981 6.96224 9.68929 6.96224C9.72876 6.96224 9.76825 6.92277 9.80768 6.8833L11.0706 5.10736C11.11 5.02843 11.11 4.9495 11.0311 4.87057C9.57087 3.72607 7.9528 3.13408 6.05844 3.13408C3.25641 3.13408 1.28313 4.8311 1.28313 7.2385C1.28313 9.80375 2.98013 10.7509 5.90058 11.4613C8.3869 12.0533 8.82103 12.5269 8.82103 13.3556C8.82103 14.3028 7.9528 14.8948 6.61096 14.8948C5.11126 14.8948 3.84839 14.3817 2.46708 13.1978C2.4276 13.1583 2.38817 13.1583 2.3487 13.1583C2.30922 13.1583 2.26976 13.1978 2.23032 13.2372L0.809532 14.9343C0.73062 15.0132 0.770093 15.0921 0.809532 15.1711C2.42761 16.5918 4.40091 17.3811 6.53204 17.3811C9.57087 17.3811 11.5047 15.7236 11.5047 13.1583C11.5441 10.9483 10.2418 9.76429 7.08455 9.01444Z" fill="#E1DDDC"/>
<path d="M18.3717 6.44915C17.0694 6.44915 16.0038 6.9622 15.0961 8.02777V6.8438C15.0961 6.76487 15.0172 6.68594 14.9382 6.68594H12.6098C12.5309 6.68594 12.4519 6.76487 12.4519 6.8438V20.0647C12.4519 20.1437 12.5309 20.2226 12.6098 20.2226H14.9382C15.0172 20.2226 15.0961 20.1437 15.0961 20.0647V15.8814C15.9643 16.868 17.0694 17.3811 18.3717 17.3811C20.8186 17.3811 23.2655 15.5262 23.2655 11.9349C23.2655 8.30403 20.8186 6.44915 18.3717 6.44915ZM20.5818 11.8954C20.5818 13.7108 19.4768 14.9737 17.8587 14.9737C16.2801 14.9737 15.0566 13.6319 15.0566 11.8954C15.0566 10.1194 16.2406 8.81708 17.8587 8.81708C19.4373 8.81708 20.5818 10.1194 20.5818 11.8954Z" fill="#E1DDDC"/>
<path d="M29.5799 6.44915C26.4621 6.44915 23.9758 8.85654 23.9758 11.9349C23.9758 14.9737 26.4227 17.3811 29.5405 17.3811C32.6977 17.3811 35.1445 14.9737 35.1445 11.8954C35.184 8.85654 32.7371 6.44915 29.5799 6.44915ZM29.5799 15.0132C27.9224 15.0132 26.6594 13.6713 26.6594 11.8954C26.6594 10.1194 27.8829 8.81708 29.5405 8.81708C31.2375 8.81708 32.5004 10.1589 32.5004 11.9349C32.5004 13.7108 31.2769 15.0132 29.5799 15.0132Z" fill="#E1DDDC"/>
<path d="M41.8537 6.6465H39.2884V4.04177C39.2884 3.96285 39.2094 3.88391 39.1305 3.88391H36.8021C36.7231 3.88391 36.6442 3.96285 36.6442 4.04177V6.6465H35.5391C35.4602 6.6465 35.3813 6.72543 35.3813 6.80436V8.8171C35.3813 8.89604 35.4602 8.97496 35.5391 8.97496H36.6442V14.1449C36.6442 16.2366 37.6703 17.3022 39.7225 17.3022C40.5513 17.3022 41.2617 17.1443 41.8931 16.7497C41.9326 16.7102 41.972 16.6707 41.972 16.5918V14.6975C41.972 14.658 41.9326 14.5791 41.8931 14.5396C41.8536 14.5001 41.7747 14.5001 41.7353 14.5396C41.3011 14.7764 40.867 14.8553 40.354 14.8553C39.6041 14.8553 39.2884 14.5001 39.2884 13.7503V8.97496H41.8537C41.9326 8.97496 42.0115 8.89604 42.0115 8.8171V6.80436C42.051 6.72543 41.972 6.6465 41.8537 6.6465Z" fill="#E1DDDC"/>
<path d="M50.7729 6.6465V6.33078C50.7729 5.38361 51.1281 4.94948 51.9569 4.94948C52.4304 4.94948 52.8251 5.02841 53.2592 5.18627C53.2987 5.18627 53.3776 5.18628 53.4171 5.14681C53.4565 5.10735 53.496 5.06788 53.496 4.98895V3.01568C53.496 2.93674 53.4565 2.85781 53.3776 2.85781C52.904 2.73942 52.312 2.58155 51.4438 2.58155C49.3127 2.58155 48.1682 3.80499 48.1682 6.09398V6.56757H47.0631C46.9842 6.56757 46.9053 6.6465 46.9053 6.72543V8.73817C46.9053 8.8171 46.9842 8.89603 47.0631 8.89603H48.1682V16.8681C48.1682 16.947 48.2471 17.0259 48.326 17.0259H50.6545C50.7334 17.0259 50.8123 16.947 50.8123 16.8681V8.97496H52.983L56.298 16.947C55.9034 17.7758 55.5482 17.9336 55.0352 17.9336C54.6405 17.9336 54.2064 17.8152 53.7723 17.5784C53.7328 17.539 53.6933 17.539 53.6538 17.5784C53.6144 17.5784 53.5749 17.6179 53.5355 17.6574L52.7462 19.3939C52.7067 19.4728 52.7462 19.5517 52.8251 19.6306C53.6539 20.0648 54.4037 20.2621 55.3114 20.2621C57.0479 20.2621 57.9951 19.4728 58.8239 17.3022L62.8493 6.88329C62.8888 6.84383 62.8493 6.7649 62.8493 6.72543C62.8099 6.68596 62.7704 6.6465 62.6914 6.6465H60.2841C60.2051 6.6465 60.1657 6.68596 60.1262 6.76489L57.6399 13.8687L54.9168 6.76489C54.8773 6.68596 54.8378 6.6465 54.7589 6.6465H50.7729Z" fill="#E1DDDC"/>
<path d="M45.6029 6.64651H43.2744C43.1955 6.64651 43.1165 6.72544 43.1165 6.80437V16.947C43.1165 17.0259 43.1955 17.1049 43.2744 17.1049H45.6029C45.6818 17.1049 45.7607 17.0259 45.7607 16.947V6.80437C45.8002 6.72544 45.7213 6.64651 45.6029 6.64651Z" fill="#E1DDDC"/>
<path d="M43.0353 0.619415C42.1276 0.619415 41.3777 1.36926 41.3777 2.27696C41.3777 3.18467 42.1276 3.93451 43.0353 3.93451C43.943 3.93451 44.6929 3.18467 44.6929 2.27696C44.6929 1.36926 43.943 0.619415 43.0353 0.619415Z" fill="#E1DDDC"/>
</svg>
